<svg xmlns="http://www.w3.org/2000/svg" viewBox="0 0 17.813 20.4749"><defs><style>.cls-1{fill:#f76054;}</style></defs><title>Risorsa 13</title><g id="Livello_2" data-name="Livello 2"><g id="Livello_6" data-name="Livello 6"><path class="cls-1" d="M17.791,8.4651a8.5827,8.5827,0,0,0-.876-3.4482,8.6662,8.6662,0,0,0-1.7876-2.479A8.9049,8.9049,0,0,0,4.8286.9866,8.896,8.896,0,0,0,.1094,7.5335c-.0469.3081-.0586.6211-.0869.9316-.0054.0562-.0147.1118-.0225.168v.3828c.0146.1528.0313.3057.0439.4585A7.3955,7.3955,0,0,0,.62,11.7849,8.7439,8.7439,0,0,0,3.9165,15.69a9.1072,9.1072,0,0,0,3.2778,1.3545A8.0314,8.0314,0,0,0,8.793,17.21c.0976-.0005.1225.0283.122.1245q-.0051,1.5308-.0029,3.062c0,.0229.0025.0459.0044.0786a.64.64,0,0,0,.0762-.0293,19.8793,19.8793,0,0,0,5.2192-3.7822,13.4242,13.4242,0,0,0,2.7808-4.065,9.92,9.92,0,0,0,.73-2.6142c.0361-.2749.0449-.5537.0678-.8311.0039-.0459.0147-.0913.0225-.1372V8.6331A1.665,1.665,0,0,1,17.791,8.4651ZM8.2021,10.0227a2.742,2.742,0,0,1-.5795,1.6934,1.4256,1.4256,0,0,1-.8912.5776c-.0546.0093-.1108.0083-.1757.0132-.0025-.0488-.0064-.0849-.0064-.1211.001-.6279.0005-1.2558.0049-1.8838.0005-.083-.0293-.101-.105-.1005-.6279.0024-1.2558,0-1.8838.0039-.0981.0009-.1225-.0293-.1225-.1246q.0044-1.768,0-3.5361c0-.0869.0215-.1152.1118-.1152q1.7732.0044,3.5464,0c.0825,0,.1079.0229.1079.1074C8.2056,7.699,8.2134,8.8611,8.2021,10.0227Zm5.1583-.042a2.7981,2.7981,0,0,1-.5816,1.7334,1.4259,1.4259,0,0,1-.89.5791c-.0552.01-.1119.0088-.1788.0137-.0029-.0483-.0063-.0776-.0063-.1074,0-.6245-.001-1.249.0039-1.8735.001-.0957-.02-.1265-.12-.1255-.6211.0049-1.2427.0005-1.8638.0053-.103.001-.13-.03-.13-.13Q9.5962,8.3082,9.5894,6.54c0-.083.0258-.11.11-.11q1.7776.0036,3.5557.0005c.0791-.0005.1113.017.1113.1049C13.3628,7.6839,13.37,8.8323,13.36,9.9807Z"/></g></g></svg>