<svg xmlns="http://www.w3.org/2000/svg" viewBox="0 0 89.6448 17.9734"><defs><style>.cls-1{fill:#f76054;}</style></defs><title>dueRisorsa 16</title><g id="Livello_2" data-name="Livello 2"><g id="Livello_6" data-name="Livello 6"><path class="cls-1" d="M41.6038,3.2612a6.0063,6.0063,0,0,1,1.872.2608A4.1,4.1,0,0,1,46.32,6.8257l-2.2676.4131A3.3809,3.3809,0,0,0,43.16,5.7544a2.1108,2.1108,0,0,0-1.5029-.5674,2.3456,2.3456,0,0,0-1.98,1.0264A5.1676,5.1676,0,0,0,38.8674,9.3a5.6221,5.6221,0,0,0,.72,3.0781A2.2312,2.2312,0,0,0,41.55,13.4849a2.6074,2.6074,0,0,0,1.8711-.6026,2.06,2.06,0,0,0,.6309-1.5566h2.2852a3.7738,3.7738,0,0,1-1.251,3.0322,5.0965,5.0965,0,0,1-3.4287,1.0713,4.5779,4.5779,0,0,1-3.6895-1.62,6.7873,6.7873,0,0,1-1.3867-4.5,6.597,6.597,0,0,1,1.4219-4.5A4.5727,4.5727,0,0,1,41.6038,3.2612Z"/><path class="cls-1" d="M51.5217,3.4956h2.6641L58.02,15.1772H55.77l-.8106-2.5195H50.6213l-.8271,2.5195h-2.25Zm-.36,7.56h3.2763l-1.62-5.0215Z"/><path class="cls-1" d="M68.7649,7.0776a3.3072,3.3072,0,0,1-.7012,2.1241,3.6592,3.6592,0,0,1-2.0166,1.2236l3.1319,4.7519H66.4075l-2.5742-4.5537h-1.62v4.5537h-2.124V3.4956h4.32a4.7933,4.7933,0,0,1,3.2217.9893A3.2123,3.2123,0,0,1,68.7649,7.0776ZM64.2112,9.2017A2.573,2.573,0,0,0,65.9749,8.67,1.7911,1.7911,0,0,0,66.57,7.2661a1.8844,1.8844,0,0,0-.54-1.4043,2.2263,2.2263,0,0,0-1.62-.53H62.2131v3.87Z"/><path class="cls-1" d="M70.1155,3.4956h9.3594V5.3315H75.8567v9.8457h-2.124V5.3315H70.1155Z"/><path class="cls-1" d="M83.1467,3.4956h2.6641l3.834,11.6816h-2.25l-.8106-2.5195H82.2463l-.8271,2.5195h-2.25Zm-.36,7.56h3.2763l-1.62-5.0215Z"/><path class="cls-1" d="M29.626,11.2576h0V3.7a3.7,3.7,0,0,0-3.7-3.7H3.7A3.7,3.7,0,0,0,0,3.7v10.574a3.7,3.7,0,0,0,3.7,3.7H25.9261a3.7,3.7,0,0,0,3.7-3.7V13.636h0ZM2,3.7A1.7016,1.7016,0,0,1,3.7,2H25.9261a1.7017,1.7017,0,0,1,1.7,1.7v7.5579H2Zm25.6259,10.574a1.7017,1.7017,0,0,1-1.7,1.7H3.7a1.7016,1.7016,0,0,1-1.7-1.7V13.636H27.6259Z"/></g></g></svg>