<svg xmlns="http://www.w3.org/2000/svg" viewBox="0 0 101.75 71.75"><defs><style>.cls-1{fill:#fff;}.cls-2{fill:#fbe200;}.cls-3{fill:#004a99;}</style></defs><title>Risorsa 4</title><g id="Livello_2" data-name="Livello 2"><g id="Livello_1-2" data-name="Livello 1"><rect class="cls-1" width="101.75" height="71.75"/><rect class="cls-2" x="7.351" y="23.0313" width="87.048" height="25.6875"/><path class="cls-3" d="M18.5716,30.6881a3.6562,3.6562,0,0,1,1.3761-.247,3.0893,3.0893,0,0,1,2.2583.8469,3.6647,3.6647,0,0,1,1.0232,2.364,6.5559,6.5559,0,0,1-.2117,2.2936,6.341,6.341,0,0,1-.8468,2.1171,4.6179,4.6179,0,0,1-3.5991,2.2935V38.9448a4.2037,4.2037,0,0,0,.7057-.2823,3.4051,3.4051,0,0,0,1.1644-1.27,7.6835,7.6835,0,0,0,.741-1.8349,6.0054,6.0054,0,0,0,.1764-1.9054,2.5936,2.5936,0,0,0-.6351-1.5172,1.968,1.968,0,0,0-1.4467-.5646,2.2741,2.2741,0,0,0-.7057.1059ZM12.3262,43.7435l2.4346-10.6913c.0706-.4234.1412-.8116.2118-1.235.0352-.4234.0705-.8115.1058-1.2349h1.6937l-.1412,1.4466a5.8794,5.8794,0,0,1,1.5879-1.2,1.4739,1.4739,0,0,1,.3528-.1412v.988a3.0489,3.0489,0,0,0-1.87,1.6937,7.6753,7.6753,0,0,0-.741,1.9759,6.3266,6.3266,0,0,0-.1764,1.87,1.8695,1.8695,0,0,0,1.976,1.8348,3.0065,3.0065,0,0,0,.8115-.1058v1.4114h-.3175a3.6357,3.6357,0,0,1-1.6937-.3881,3.7215,3.7215,0,0,1-1.235-1.1292l-1.1291,4.9046Z"/><path class="cls-3" d="M63.8422,32.1a3.4745,3.4745,0,0,0-.6.0706V30.794a1.7241,1.7241,0,0,0,.247-.1059,3.6824,3.6824,0,0,1,1.6584-.3528,2.9842,2.9842,0,0,1,2.1876.8115,3.5248,3.5248,0,0,1,.9174,2.3288A7.0352,7.0352,0,0,1,67.159,38.31a4.0887,4.0887,0,0,1-3.5638,2.0112c-.1058,0-.247-.0353-.3528-.0353V38.4508a1.342,1.342,0,0,0,.6-.2823,3.0493,3.0493,0,0,0,.8116-1.0938,8.6347,8.6347,0,0,0,.6-1.7643,5.5024,5.5024,0,0,0,.1412-1.6231,1.7743,1.7743,0,0,0-.4587-1.1644A1.462,1.462,0,0,0,63.8422,32.1Zm-.6.0706a2.6864,2.6864,0,0,0-1.4467,1.3055,5.1481,5.1481,0,0,0-.67,3.1757,2.23,2.23,0,0,0,.5293,1.3761,1.49,1.49,0,0,0,1.1644.494,1.7711,1.7711,0,0,0,.4234-.0706v1.8348a3.3066,3.3066,0,0,1-1.3761-.3881,2.7365,2.7365,0,0,1-1.1644-1.2l-1.1292,5.0457H56.6441l2.2582-10.2326c.2823-1.3055.4587-2.2935.5293-2.9286H62.078l-.0706,1.1644a7.2622,7.2622,0,0,1,1.235-.9527Z"/><path class="cls-3" d="M74.8511,35.5927a.4471.4471,0,0,0-.2117-.0353h-.3175a4.4012,4.4012,0,0,0-1.235.1412V34.146c.3881-.0352.8468-.0352,1.3055-.0352h.8116a4.9,4.9,0,0,0,.1411-.8116,2.17,2.17,0,0,0,.0353-.4587.83.83,0,0,0-.3528-.6351,1.3106,1.3106,0,0,0-.8116-.2117,1.46,1.46,0,0,0-.9527.2822c-.0706.0706-.1411.1059-.1764.2117V30.5117a5.8822,5.8822,0,0,1,1.1291-.0706,5.2484,5.2484,0,0,1,2.8228.6,2.317,2.317,0,0,1,1.0585,1.8348,2.8546,2.8546,0,0,1,0,.7762c-.0352.247-.1058.5646-.1764.8822L77.18,37.78a12.1292,12.1292,0,0,0-.2117,1.2c-.0353.4234-.0353.8115-.0353,1.235H74.2513v-.67c0-.247.0353-.4587.0353-.7057a3.4652,3.4652,0,0,1-1.2,1.0939v-1.482a2.82,2.82,0,0,0,.8468-.67A4.5782,4.5782,0,0,0,74.8511,35.5927Zm-1.7642.1059a2.835,2.835,0,0,0-.988.4587,1.4534,1.4534,0,0,0-.7763,1.4467.9113.9113,0,0,0,.3176.7409.9936.9936,0,0,0,.741.247,1.5791,1.5791,0,0,0,.7057-.1411v1.482l-.0706.0353a3.1646,3.1646,0,0,1-1.5525.3881,3.0015,3.0015,0,0,1-2.0466-.7057,2.6087,2.6087,0,0,1-.8821-1.8348,2.77,2.77,0,0,1,1.3409-2.7523,6.9368,6.9368,0,0,1,3.2109-.9174v1.5526Zm0-5.1869v1.9759a1.8479,1.8479,0,0,0-.2823.7057H70.0171a2.66,2.66,0,0,1,1.2-2.0465A4.88,4.88,0,0,1,73.0869,30.5117Z"/><polygon class="cls-3" points="78.591 43.708 80.92 40.18 79.226 30.512 82.12 30.512 82.931 37.145 86.672 30.512 89.424 30.512 83.425 40.568 81.696 43.708 78.591 43.708"/><path class="cls-3" d="M28.769,31.5a2.4439,2.4439,0,0,0-.7057.1058v-1.235a7.6925,7.6925,0,0,1,.9174-.0352,4.189,4.189,0,0,1,2.6816.8115,3.2461,3.2461,0,0,1,1.1644,2.3288,6.957,6.957,0,0,1-.247,2.5053,7.1247,7.1247,0,0,1-.9526,2.2935,4.1946,4.1946,0,0,1-1.7643,1.5878,5.17,5.17,0,0,1-1.7995.4587v-1.235a2.56,2.56,0,0,0,.7762-.3175,3.1852,3.1852,0,0,0,1.0939-1.1644,7.23,7.23,0,0,0,.7762-2.0113,6.986,6.986,0,0,0,.2118-1.9759,2.3688,2.3688,0,0,0-.6352-1.5879A2.035,2.035,0,0,0,28.769,31.5Zm-.7057.1058a3.599,3.599,0,0,0-.7763.3176,4.1439,4.1439,0,0,0-1.1291,1.3055,6.5518,6.5518,0,0,0-.741,1.9407,7.0476,7.0476,0,0,0-.1764,2.0112,1.9954,1.9954,0,0,0,2.1524,1.976,3.9062,3.9062,0,0,0,.67-.0706v1.235c-.247,0-.5293.0353-.8116.0353a3.9374,3.9374,0,0,1-2.7169-.8821A3.2129,3.2129,0,0,1,23.37,37.0747a6.7558,6.7558,0,0,1,.2823-2.6111A6.95,6.95,0,0,1,24.7465,32.1a4.3319,4.3319,0,0,1,1.7289-1.3408,6.9794,6.9794,0,0,1,1.5879-.3882Z"/><path class="cls-3" d="M34.7674,37.0394a1.2175,1.2175,0,0,0-.1058.4587.5981.5981,0,0,0,0,.3529,1.0291,1.0291,0,0,0,.4587.8468,2.0024,2.0024,0,0,0,1.2349.2823,3.0566,3.0566,0,0,0,1.729-.4234,1.2642,1.2642,0,0,0,.5646-1.1644.9726.9726,0,0,0-.3882-.741,7.11,7.11,0,0,0-1.5172-.8469,7.6869,7.6869,0,0,1-2.0818-1.27,1.828,1.828,0,0,1-.67-1.3056,2.3268,2.3268,0,0,1,.9175-2.0818,4.6585,4.6585,0,0,1,2.858-.8115,4.834,4.834,0,0,1,2.4347.494,1.7269,1.7269,0,0,1,.9174,1.4466v.3529a3.4884,3.4884,0,0,1-.0353.5293H39.3545v-.5293a1.0161,1.0161,0,0,0-.4587-.8116,2.015,2.015,0,0,0-1.1644-.2823,2.2033,2.2033,0,0,0-1.3762.3882,1.0631,1.0631,0,0,0-.4587,1.0232.955.955,0,0,0,.3882.67,6.98,6.98,0,0,0,1.5525.8821A8.0063,8.0063,0,0,1,40.06,35.84a2.2076,2.2076,0,0,1,.5645,1.3408,2.4176,2.4176,0,0,1-1.1291,2.2583,5.3658,5.3658,0,0,1-3.2462.9174,5.0614,5.0614,0,0,1-2.5052-.5646,2.0653,2.0653,0,0,1-.988-1.6231,1.323,1.323,0,0,1,0-.5293c.0353-.1764.0705-.3881.1058-.6Z"/><path class="cls-3" d="M46.3762,40.2151q-.5293.0528-.9527.1058c-.2823,0-.5646.0353-.8116.0353a2.5887,2.5887,0,0,1-1.5525-.3529,1.3188,1.3188,0,0,1-.5646-1.1291,4.0584,4.0584,0,0,1,.0353-.8821c.0353-.4234.1411-.8468.2117-1.3055l1.0939-4.7988H42.0714l.3176-1.235h1.7289l.494-2.1876,1.87-.4587-.5645,2.6463h2.0818l-.2823,1.235H45.6352l-1.0586,5.0105a3.9786,3.9786,0,0,0-.1764.8468,1.1084,1.1084,0,0,0-.0353.4587.6014.6014,0,0,0,.2823.5646,1.5266,1.5266,0,0,0,.9174.2117,4.0722,4.0722,0,0,0,.5646-.0706,3.1843,3.1843,0,0,0,.5645-.1058Z"/><path class="cls-3" d="M52.4805,34.2872H54.88c.0353-.3176.0706-.5646.0706-.741a1.0034,1.0034,0,0,0,0-.4587,1.5916,1.5916,0,0,0-.6-1.2,2.5029,2.5029,0,0,0-1.5173-.4587c-.1058,0-.247.0353-.3528.0353V30.3h.3881a4.8227,4.8227,0,0,1,2.8228.7057A2.92,2.92,0,0,1,56.75,33.2286a6.0292,6.0292,0,0,1,0,1.1291,5.2092,5.2092,0,0,1-.1764,1.235h-4.093V34.2872Zm0,5.9984V38.8389a3.126,3.126,0,0,0,.6-.2822,2.3465,2.3465,0,0,0,.9174-1.235H56.08a3.6576,3.6576,0,0,1-1.5878,2.2229A4.5866,4.5866,0,0,1,52.4805,40.2856Zm-2.47-5.9984h2.47v1.3055H49.693a3.3455,3.3455,0,0,0-.1765.8116,4.9675,4.9675,0,0,0-.0353.7057,2.1055,2.1055,0,0,0,.6352,1.3761,2.3382,2.3382,0,0,0,1.5525.494,2.07,2.07,0,0,0,.8116-.1412v1.4467a9.3177,9.3177,0,0,1-1.0233.0706,4.19,4.19,0,0,1-2.6817-.8116,3.17,3.17,0,0,1-1.0938-2.2935,7.3652,7.3652,0,0,1,.247-2.5405,8.7369,8.7369,0,0,1,.9527-2.3994A4.1824,4.1824,0,0,1,50.54,30.8293,4.7822,4.7822,0,0,1,52.4805,30.3v1.1644a2.2629,2.2629,0,0,0-1.4467.7057A3.74,3.74,0,0,0,50.0105,34.2872Z"/></g></g></svg>