<svg xmlns="http://www.w3.org/2000/svg" viewBox="0 0 123.5861 30.178"><defs><style>.cls-1{fill:#999;}.cls-2{fill:#e6e6e6;}.cls-3{fill:gray;}</style></defs><title>paypal_logo_grigio</title><g id="Livello_2" data-name="Livello 2"><g id="Livello_6" data-name="Livello 6"><path class="cls-1" d="M46.211,6.749H39.372a.95.95,0,0,0-.939.802L35.667,25.088a.57.57,0,0,0,.564.658h3.265a.95.95,0,0,0,.939-.803l.746-4.73a.95.95,0,0,1,.938-.803h2.165c4.505,0,7.105-2.18,7.784-6.5a5.2676,5.2676,0,0,0-.872-4.415C50.224,7.353,48.5,6.749,46.211,6.749ZM47,13.154c-.374,2.454-2.249,2.454-4.062,2.454H41.906l.724-4.583a.57.57,0,0,1,.563-.481h.473c1.235,0,2.4,0,3.002.704A2.2792,2.2792,0,0,1,47,13.154Zm19.654-.079H63.379a.57.57,0,0,0-.563.481l-.145.916-.229-.332c-.709-1.029-2.29-1.373-3.868-1.373a7.5312,7.5312,0,0,0-7.312,6.586,6.1816,6.1816,0,0,0,1.22,5.031,5.1243,5.1243,0,0,0,4.125,1.666,6.2662,6.2662,0,0,0,4.533-1.875l-.146.91a.57.57,0,0,0,.562.66h2.95a.95.95,0,0,0,.939-.803l1.77-11.209a.5681.5681,0,0,0-.561-.658Zm-4.565,6.374a3.65,3.65,0,0,1-3.695,3.127,2.537,2.537,0,0,1-2.713-3.184,3.6659,3.6659,0,0,1,3.67-3.152,2.7628,2.7628,0,0,1,2.184.892A2.8346,2.8346,0,0,1,62.089,19.449Zm22.007-6.374H80.805a.9542.9542,0,0,0-.787.417l-4.539,6.686-1.924-6.425a.9528.9528,0,0,0-.912-.678H69.409a.57.57,0,0,0-.541.754l3.625,10.638-3.408,4.811a.57.57,0,0,0,.465.9h3.287a.9492.9492,0,0,0,.781-.408l10.946-15.8a.57.57,0,0,0-.468-.895Z"/><path class="cls-2" d="M94.992,6.749h-6.84a.95.95,0,0,0-.938.802L84.448,25.088a.569.569,0,0,0,.562.658h3.51a.6651.6651,0,0,0,.656-.562l.785-4.971a.95.95,0,0,1,.938-.803h2.164c4.506,0,7.105-2.18,7.785-6.5a5.2641,5.2641,0,0,0-.873-4.415C99.004,7.353,97.281,6.749,94.992,6.749Zm.789,6.405c-.373,2.454-2.248,2.454-4.062,2.454H90.688l.725-4.583a.5681.5681,0,0,1,.562-.481h.473c1.234,0,2.4,0,3.002.704A2.2794,2.2794,0,0,1,95.781,13.154Zm19.653-.079h-3.273a.567.567,0,0,0-.562.481l-.145.916-.23-.332c-.709-1.029-2.289-1.373-3.867-1.373a7.53,7.53,0,0,0-7.311,6.586,6.1849,6.1849,0,0,0,1.219,5.031,5.1269,5.1269,0,0,0,4.125,1.666,6.2662,6.2662,0,0,0,4.533-1.875l-.146.91a.57.57,0,0,0,.564.66h2.949a.95.95,0,0,0,.938-.803l1.771-11.209a.5712.5712,0,0,0-.565-.658Zm-4.565,6.374a3.6485,3.6485,0,0,1-3.695,3.127,2.537,2.537,0,0,1-2.713-3.184,3.6673,3.6673,0,0,1,3.67-3.152,2.7628,2.7628,0,0,1,2.184.892A2.82,2.82,0,0,1,110.869,19.449ZM119.295,7.23l-2.807,17.858a.569.569,0,0,0,.562.658h2.822a.9487.9487,0,0,0,.939-.803l2.768-17.536a.57.57,0,0,0-.474-.652.5759.5759,0,0,0-.088-.007h-3.16A.5711.5711,0,0,0,119.295,7.23Z"/><path class="cls-2" d="M23.048,7.667q-.042.2685-.096.55c-1.237,6.351-5.469,8.545-10.874,8.545H9.326a1.3364,1.3364,0,0,0-1.321,1.132L6.596,26.83l-.399,2.533a.7038.7038,0,0,0,.695.814h4.881a1.1746,1.1746,0,0,0,1.16-.99l.048-.248.919-5.832.059-.32a1.1738,1.1738,0,0,1,1.16-.992h.73c4.729,0,8.431-1.92,9.513-7.476.452-2.321.218-4.259-.978-5.622A4.6662,4.6662,0,0,0,23.048,7.667Z"/><path class="cls-1" d="M21.754,7.151a9.75,9.75,0,0,0-1.203-.267,15.2845,15.2845,0,0,0-2.426-.177H10.773a1.172,1.172,0,0,0-1.159.992L8.05,17.605l-.045.289a1.3361,1.3361,0,0,1,1.321-1.132h2.752c5.405,0,9.637-2.195,10.874-8.545.037-.188.068-.371.096-.55a6.5878,6.5878,0,0,0-1.017-.429Q21.8933,7.1923,21.754,7.151Z"/><path class="cls-3" d="M9.614,7.699a1.1691,1.1691,0,0,1,1.159-.991h7.352a15.2841,15.2841,0,0,1,2.426.177,9.7507,9.7507,0,0,1,1.481.353,6.6933,6.6933,0,0,1,1.017.429c.368-2.347-.003-3.945-1.272-5.392C20.378.682,17.853,0,14.622,0H5.242A1.3405,1.3405,0,0,0,3.917,1.133L.01,25.898a.806.806,0,0,0,.67.9221.8163.8163,0,0,0,.1249.01H6.596L8.05,17.605Z"/></g></g></svg>