<svg xmlns="http://www.w3.org/2000/svg" viewBox="0 0 20.451 20.4749"><defs><style>.cls-1{fill:#f76054;}</style></defs><title>Risorsa 12</title><g id="Livello_2" data-name="Livello 2"><g id="Livello_6" data-name="Livello 6"><path class="cls-1" d="M19.68,11.8083a.5015.5015,0,0,1-.0486-.27c.0294-.4322.07-.8635.1066-1.2953A9.3877,9.3877,0,0,0,17.4836,4.121,9.32,9.32,0,0,0,8.9875.819.6248.6248,0,0,1,8.585.7418,5.6344,5.6344,0,0,0,4.8175.0828a5.778,5.778,0,0,0-4.3,8.0808,3.0066,3.0066,0,0,1,.3072.6579,3.3965,3.3965,0,0,1-.0662.727A9.2641,9.2641,0,0,0,3.61,17.0351a9.2581,9.2581,0,0,0,7.846,2.6182.63.63,0,0,1,.4038.0722,5.6321,5.6321,0,0,0,4.4657.5A5.7766,5.7766,0,0,0,19.68,11.8083Zm-6.6564,3.9405a6.02,6.02,0,0,1-2.1474.5026,7.6074,7.6074,0,0,1-3.0938-.3534,3.9588,3.9588,0,0,1-2.2973-2.0151,2.4326,2.4326,0,0,1-.25-.9084,1.0159,1.0159,0,0,1,.5792-1.0237,1.08,1.08,0,0,1,1.2371.1668,3.3447,3.3447,0,0,1,.41.62c.1193.207.21.43.3249.64a2.2167,2.2167,0,0,0,1.79,1.1774,3.7242,3.7242,0,0,0,1.9836-.2162,3.0553,3.0553,0,0,0,.7628-.4952A1.3864,1.3864,0,0,0,12.17,11.7a3.941,3.941,0,0,0-1.3208-.5435c-.79-.2-1.586-.3787-2.3731-.59a6.6051,6.6051,0,0,1-1.5131-.611,2.8561,2.8561,0,0,1,0-5.0227A5.8252,5.8252,0,0,1,9.32,4.2373c.2891-.027.58-.0337.87-.05a6.0031,6.0031,0,0,1,2.8153.6042,3.23,3.23,0,0,1,1.4183,1.3288,1.7526,1.7526,0,0,1,.2337,1.0138A1.1061,1.1061,0,0,1,13.07,8a.6805.6805,0,0,1-.2569-.21c-.14-.1805-.2643-.374-.39-.5654-.07-.1063-.1283-.22-.1949-.3287a2.1379,2.1379,0,0,0-1.894-1.0687,3.4927,3.4927,0,0,0-1.49.1893,2.6192,2.6192,0,0,0-.708.4381,1.016,1.016,0,0,0,.0393,1.5907,2.8889,2.8889,0,0,0,1.1764.5644c.8976.2329,1.8008.4446,2.6977.68a6.69,6.69,0,0,1,1.7366.7063,2.7893,2.7893,0,0,1,1.4269,2.7176A3.3627,3.3627,0,0,1,13.0231,15.7488Z"/></g></g></svg>