<svg xmlns="http://www.w3.org/2000/svg" viewBox="0 0 19.4263 19.4263"><defs><style>.cls-1{fill:none;}.cls-2{fill:#010101;}</style></defs><title>Risorsa 1</title><g id="Livello_2" data-name="Livello 2"><g id="Livello_1-2" data-name="Livello 1"><rect class="cls-1" width="19.4263" height="19.4263"/><path class="cls-2" d="M15.763,2.9124h-12.1a.7507.7507,0,0,0-.7509.7509v12.1a.7506.7506,0,0,0,.7509.75h6.5145V11.2467H8.4051V9.194h1.7727V7.68a2.4735,2.4735,0,0,1,2.64-2.7136,14.542,14.542,0,0,1,1.584.0811V6.884l-1.0869.0006c-.8524,0-1.0173.4052-1.0173.9991V9.1946h2.0328l-.2646,2.0527H12.298v5.2666h3.4661a.7506.7506,0,0,0,.75-.7509v-12.1A.7507.7507,0,0,0,15.763,2.9124Z"/></g></g></svg>