<svg xmlns="http://www.w3.org/2000/svg" viewBox="0 0 19.4263 19.4263"><defs><style>.cls-1{fill:none;}.cls-2{fill:#010101;}</style></defs><title>Risorsa 3</title><g id="Livello_2" data-name="Livello 2"><g id="Livello_1-2" data-name="Livello 1"><rect class="cls-1" width="19.4263" height="19.4263"/><path class="cls-2" d="M19.0261,5.0406a2.4339,2.4339,0,0,0-1.7122-1.7122c-1.52-.416-7.6008-.416-7.6008-.416a59.1041,59.1041,0,0,0-7.6009.4A2.484,2.484,0,0,0,.4,5.0406,25.6487,25.6487,0,0,0,0,9.7131a25.5531,25.5531,0,0,0,.4,4.6725,2.434,2.434,0,0,0,1.7122,1.7122c1.5362.4161,7.6009.4161,7.6009.4161a59.0873,59.0873,0,0,0,7.6008-.4,2.4339,2.4339,0,0,0,1.7122-1.7122,25.6418,25.6418,0,0,0,.4-4.6725A24.3484,24.3484,0,0,0,19.0261,5.0406ZM7.7769,12.6254V6.8008l5.0565,2.9123Z"/></g></g></svg>