<?xml version="1.0" encoding="utf-8"?>
<!-- Generator: Adobe Illustrator 23.1.1, SVG Export Plug-In . SVG Version: 6.00 Build 0)  -->
<svg version="1.1" id="Livello_1" xmlns="http://www.w3.org/2000/svg" xmlns:xlink="http://www.w3.org/1999/xlink" x="0px" y="0px"
	 viewBox="0 0 19.43 19.43" style="enable-background:new 0 0 19.43 19.43;" xml:space="preserve">
<title>Risorsa 1</title>
<path d="M2.91,9.75c0-1.92,0.01-3.85,0-5.77c0-0.54,0.36-0.91,0.79-0.99c0.07-0.01,0.14-0.01,0.21-0.01c3.87,0,7.74,0,11.61,0
	c0.58,0,0.99,0.4,0.99,0.98c0,3.87,0,7.74,0,11.61c0,0.61-0.41,1.01-1.02,1.01c-3.85,0-7.71,0-11.56,0c-0.52,0-1.02-0.41-1.02-1.01
	C2.92,13.62,2.91,11.68,2.91,9.75z M10.16,8.88c0-0.23-0.01-0.46,0-0.68c0.01-0.13-0.04-0.16-0.16-0.16c-0.55,0.01-1.1,0.01-1.64,0
	c-0.12,0-0.17,0.03-0.17,0.16c0,2.08,0,4.15,0,6.23c0,0.12,0.04,0.15,0.16,0.15c0.57,0,1.14-0.01,1.72,0c0.14,0,0.19-0.04,0.18-0.18
	c-0.01-1.02-0.01-2.05,0-3.07c0-0.22,0.02-0.45,0.06-0.67c0.11-0.64,0.5-0.97,1.14-0.97c0.52,0,0.84,0.24,0.95,0.75
	c0.06,0.25,0.08,0.52,0.08,0.78c0.01,1.06,0,2.12,0,3.17c0,0.19,0,0.19,0.18,0.19c0.57,0,1.13,0,1.7,0c0.19,0,0.19,0,0.19-0.19
	c0-1.11,0-2.22,0-3.33c0-0.5-0.02-1-0.14-1.49c-0.14-0.6-0.41-1.12-0.99-1.4c-0.7-0.35-1.43-0.39-2.16-0.14
	C10.8,8.18,10.44,8.48,10.16,8.88z M6.95,11.32c0-1.04,0-2.08,0-3.12c0-0.13-0.03-0.17-0.17-0.17c-0.57,0.01-1.14,0.01-1.71,0
	C4.95,8.04,4.9,8.06,4.9,8.2c0,2.07,0,4.14,0,6.22c0,0.12,0.03,0.16,0.16,0.16c0.57-0.01,1.14-0.01,1.71,0
	c0.15,0,0.18-0.04,0.18-0.19C6.95,13.37,6.95,12.35,6.95,11.32z M7.12,5.99c0-0.66-0.53-1.19-1.19-1.19c-0.67,0-1.2,0.53-1.2,1.19
	c0,0.65,0.54,1.19,1.19,1.2C6.57,7.2,7.12,6.65,7.12,5.99z"/>
</svg>
