<svg xmlns="http://www.w3.org/2000/svg" viewBox="0 0 101.75 71.75"><defs><style>.cls-1{fill:#fff;}.cls-2{fill:#7673c0;}.cls-3{fill:#eb001b;}.cls-4{fill:#00a1df;}</style></defs><title>Risorsa 3</title><g id="Livello_2" data-name="Livello 2"><g id="Livello_1-2" data-name="Livello 1"><rect class="cls-1" width="101.75" height="71.75"/><path d="M34.56,67.7341v-4.255a2.51,2.51,0,0,0-2.34-2.6866,1.3394,1.3394,0,0,0-.3214,0,2.61,2.61,0,0,0-2.3782,1.2083,2.4871,2.4871,0,0,0-2.2367-1.2083,2.2677,2.2677,0,0,0-1.9926,1.0026V60.96H23.8134v6.7745h1.4912V63.9805a1.5721,1.5721,0,0,1,1.35-1.7869,2.5911,2.5911,0,0,1,.3213-.0128c.977,0,1.4784.6427,1.4784,1.7868v3.7665h1.4911V63.9805a1.5931,1.5931,0,0,1,1.3755-1.7869,2.0915,2.0915,0,0,1,.2828-.0128c1.0027,0,1.4912.6427,1.4912,1.7868v3.7665Zm8.2914-3.3808V60.96H41.36v.8227a2.5385,2.5385,0,0,0-2.1339-.99,3.548,3.548,0,1,0,0,7.0959,2.6065,2.6065,0,0,0,2.1339-.99v.8227h1.4784Zm-5.4762,0a2.054,2.054,0,1,1,2.07,2.1725,2.0249,2.0249,0,0,1-2.07-1.98v-.1928Zm37.0094-3.548a3.7882,3.7882,0,0,1,1.4141.27,3.4421,3.4421,0,0,1,1.1569.7455,3.4069,3.4069,0,0,1,.7713,1.1313,3.748,3.748,0,0,1,0,2.8409,3.4069,3.4069,0,0,1-.7713,1.1313,3.4421,3.4421,0,0,1-1.1569.7455,4.0425,4.0425,0,0,1-2.9052,0,3.387,3.387,0,0,1-1.1441-.7455,3.5726,3.5726,0,0,1-.7585-1.1313,3.748,3.748,0,0,1,0-2.8409,3.5726,3.5726,0,0,1,.7585-1.1313,3.5179,3.5179,0,0,1,1.1441-.7455A3.8394,3.8394,0,0,1,74.372,60.78Zm0,1.4141a2.4156,2.4156,0,0,0-.8484.1542,1.8617,1.8617,0,0,0-.6685.45,2.2828,2.2828,0,0,0-.45.7071,2.4477,2.4477,0,0,0,0,1.7611,2.1427,2.1427,0,0,0,.45.707,2.1143,2.1143,0,0,0,.6685.45,2.3749,2.3749,0,0,0,1.684,0,1.952,1.952,0,0,0,.707-.45,2.2805,2.2805,0,0,0,.45-.707,2.4466,2.4466,0,0,0,0-1.7611,2.14,2.14,0,0,0-.45-.7071,2.2824,2.2824,0,0,0-.707-.45,1.951,1.951,0,0,0-.8484-.1928ZM50.8731,64.3533a3.2231,3.2231,0,0,0-3.2137-3.548,3.5484,3.5484,0,0,0,.1028,7.096,4.1267,4.1267,0,0,0,2.7767-.9513l-.707-1.0927a3.2574,3.2574,0,0,1-1.9669.707,1.8749,1.8749,0,0,1-2.031-1.6583H50.86C50.8731,64.7261,50.8731,64.5461,50.8731,64.3533Zm-5.052-.6042a1.7362,1.7362,0,0,1,1.7868-1.6326,1.69,1.69,0,0,1,1.7226,1.6454h0Zm11.261-1.067a4.25,4.25,0,0,0-2.134-.5784c-.81,0-1.2855.2956-1.2855.797s.5142.5784,1.1441.6684l.707.1029c1.4784.2185,2.3654.8355,2.3654,2.0311s-1.1313,2.211-3.0852,2.211a4.9723,4.9723,0,0,1-2.931-.8741l.7071-1.1441a3.5535,3.5535,0,0,0,2.25.707c1.0027,0,1.5426-.2957,1.5426-.8227,0-.3857-.3857-.5913-1.1955-.707L54.46,64.97c-1.5168-.2185-2.34-.9-2.34-2.0054,0-1.35,1.1056-2.1724,2.841-2.1724a5.1023,5.1023,0,0,1,2.7638.707Zm7.083-.3728H61.7613v3.0595c0,.707.2442,1.1313.9769,1.1313a2.638,2.638,0,0,0,1.3112-.3857l.4243,1.26a3.4681,3.4681,0,0,1-1.8383.527c-1.7483,0-2.3525-.9384-2.3525-2.5067V62.3093H58.9075V60.96h1.3754V58.9028h1.4912V60.96H64.178v1.35Zm5.1035-1.5168a3.3018,3.3018,0,0,1,1.0541.18l-.45,1.4141a2.2728,2.2728,0,0,0-.9255-.1671c-.9641,0-1.4141.63-1.4141,1.7482V67.76H66.0548V60.9853H67.52v.8227a2,2,0,0,1,1.7868-.99Z"/><g id="_Group_" data-name=" Group "><rect class="cls-2" x="39.7021" y="9.2698" width="22.3419" height="40.1589"/><path id="_Path_" data-name=" Path " class="cls-3" d="M41.1162,29.3492A25.449,25.449,0,0,1,50.8731,9.27a25.5327,25.5327,0,1,0,0,40.146A25.444,25.444,0,0,1,41.1162,29.3492Z"/><path class="cls-4" d="M92.189,29.3492a25.5441,25.5441,0,0,1-41.3159,20.08,25.5327,25.5327,0,0,0,0-40.1461A25.5372,25.5372,0,0,1,92.189,29.3492Z"/></g></g></g></svg>