<svg xmlns="http://www.w3.org/2000/svg" viewBox="0 0 19.4263 19.4263"><defs><style>.cls-1{fill:none;}.cls-2{fill:#010101;}</style></defs><title>Risorsa 2</title><g id="Livello_2" data-name="Livello 2"><g id="Livello_1-2" data-name="Livello 1"><rect class="cls-1" width="19.4263" height="19.4263"/><path class="cls-2" d="M9.7131,4.1377c1.8159,0,2.031.0069,2.7481.04a3.7624,3.7624,0,0,1,1.2628.2341,2.2525,2.2525,0,0,1,1.2907,1.2907,3.7655,3.7655,0,0,1,.2342,1.2628c.0327.7172.04.9322.04,2.7481s-.0069,2.031-.04,2.7481a3.7643,3.7643,0,0,1-.2342,1.2628,2.2517,2.2517,0,0,1-1.2907,1.2907,3.7643,3.7643,0,0,1-1.2628.2342c-.717.0327-.9321.04-2.7481.04s-2.031-.0069-2.7481-.04a3.7655,3.7655,0,0,1-1.2628-.2342A2.2519,2.2519,0,0,1,4.4116,13.724a3.7591,3.7591,0,0,1-.2342-1.2628c-.0328-.7171-.04-.9322-.04-2.7481s.0069-2.0309.04-2.7481a3.76,3.76,0,0,1,.2342-1.2628A2.2527,2.2527,0,0,1,5.7022,4.4115,3.7636,3.7636,0,0,1,6.965,4.1774c.7172-.0328.9322-.04,2.7481-.04m0-1.2253c-1.847,0-2.0785.0078-2.8039.0409a4.9912,4.9912,0,0,0-1.6508.3161,3.4772,3.4772,0,0,0-1.989,1.989,4.9912,4.9912,0,0,0-.3161,1.6508c-.0331.7253-.0409.9569-.0409,2.8039s.0078,2.0786.0409,2.804a4.9917,4.9917,0,0,0,.3161,1.6508,3.478,3.478,0,0,0,1.989,1.989,4.9938,4.9938,0,0,0,1.6508.3161c.7254.0331.9569.0409,2.8039.0409s2.0786-.0078,2.804-.0409a4.9943,4.9943,0,0,0,1.6508-.3161,3.4787,3.4787,0,0,0,1.989-1.989,4.9943,4.9943,0,0,0,.3161-1.6508c.0331-.7254.0409-.957.0409-2.804s-.0078-2.0786-.0409-2.8039a4.9938,4.9938,0,0,0-.3161-1.6508,3.478,3.478,0,0,0-1.989-1.989,4.9917,4.9917,0,0,0-1.6508-.3161C11.7917,2.92,11.56,2.9124,9.7131,2.9124Zm0,3.3084a3.4923,3.4923,0,1,0,3.4923,3.4923A3.4924,3.4924,0,0,0,9.7131,6.2208Zm0,5.7593a2.267,2.267,0,1,1,2.267-2.267A2.267,2.267,0,0,1,9.7131,11.98ZM14.16,6.0829a.8161.8161,0,1,1-.8161-.8161A.8161.8161,0,0,1,14.16,6.0829Z"/></g></g></svg>