<svg xmlns="http://www.w3.org/2000/svg" viewBox="0 0 19.3501 19.3506"><defs><style>.cls-1{fill:#f76054;}</style></defs><title>Risorsa 14</title><g id="Livello_2" data-name="Livello 2"><g id="Livello_6" data-name="Livello 6"><path class="cls-1" d="M0,12.228a2.0327,2.0327,0,0,0,4.0654,0V10.1953H2.0327A2.0372,2.0372,0,0,0,0,12.228Z"/><path class="cls-1" d="M7.1221,10.1953A2.0375,2.0375,0,0,0,5.0894,12.228v5.0894a2.033,2.033,0,1,0,4.0659,0V12.228A2.0377,2.0377,0,0,0,7.1221,10.1953Z"/><path class="cls-1" d="M7.1221,0a2.0327,2.0327,0,1,0,0,4.0654H9.1553V2.0327A2.0377,2.0377,0,0,0,7.1221,0Z"/><path class="cls-1" d="M7.1221,5.09H2.0327a2.0328,2.0328,0,0,0,0,4.0655H7.1221a2.0328,2.0328,0,1,0,0-4.0655Z"/><path class="cls-1" d="M19.35,7.1221a2.0327,2.0327,0,0,0-4.0654,0V9.1553h2.0327A2.0377,2.0377,0,0,0,19.35,7.1221Z"/><path class="cls-1" d="M12.2275,9.1553a2.038,2.038,0,0,0,2.0332-2.0332V2.0327a2.033,2.033,0,0,0-4.0659,0V7.1221A2.038,2.038,0,0,0,12.2275,9.1553Z"/><path class="cls-1" d="M12.2275,15.2847H10.1948v2.0327a2.033,2.033,0,1,0,2.0327-2.0327Z"/><path class="cls-1" d="M17.3174,10.1953h-5.09a2.0327,2.0327,0,1,0,0,4.0654h5.09a2.0327,2.0327,0,1,0,0-4.0654Z"/></g></g></svg>