<svg xmlns="http://www.w3.org/2000/svg" viewBox="0 0 101.75 71.75"><defs><style>.cls-1{fill:#fff;}.cls-2{fill:#231f20;}.cls-3{fill:#ff5f00;}.cls-4{fill:#eb001b;}.cls-5{fill:#f79e1b;}</style></defs><title>Risorsa 2</title><g id="Livello_2" data-name="Livello 2"><g id="Livello_1-2" data-name="Livello 1"><rect class="cls-1" width="101.75" height="71.75"/><path class="cls-2" d="M27.3362,64.3684a2.0543,2.0543,0,1,1,2.0582,2.172,2.0359,2.0359,0,0,1-2.0582-2.172m5.4924,0V60.9765H31.3535V61.8a2.5714,2.5714,0,0,0-2.1426-.9942,3.5667,3.5667,0,0,0,0,7.125,2.5714,2.5714,0,0,0,2.1426-.9942V67.76h1.4751Zm49.8456,0a2.0543,2.0543,0,1,1,2.0583,2.172,2.0359,2.0359,0,0,1-2.0583-2.172m5.494,0V58.2522H86.6916V61.8a2.5717,2.5717,0,0,0-2.1427-.9942,3.5667,3.5667,0,0,0,0,7.125,2.5717,2.5717,0,0,0,2.1427-.9942V67.76h1.4766Zm-37.03-2.2418a1.685,1.685,0,0,1,1.7171,1.6456h-3.52a1.7468,1.7468,0,0,1,1.8031-1.6456m.0293-1.3207a3.5655,3.5655,0,0,0,.0991,7.125,4.1227,4.1227,0,0,0,2.7811-.95l-.7229-1.0933a3.2443,3.2443,0,0,1-1.9738.71,1.8841,1.8841,0,0,1-2.0289-1.6618H54.36c.0146-.1836.0292-.3688.0292-.567-.0146-2.1151-1.3207-3.5625-3.2213-3.5625m17.8108,3.5625a2.0543,2.0543,0,1,1,2.0582,2.172,2.0359,2.0359,0,0,1-2.0582-2.172m5.4924,0V60.9765h-1.475V61.8a2.5738,2.5738,0,0,0-2.1427-.9942,3.5667,3.5667,0,0,0,0,7.125,2.5738,2.5738,0,0,0,2.1427-.9942V67.76h1.475Zm-13.8227,0a3.4271,3.4271,0,0,0,3.6193,3.5625,3.5518,3.5518,0,0,0,2.44-.809L65.9989,65.93a2.9811,2.9811,0,0,1-1.7755.6109,2.176,2.176,0,0,1,0-4.3439,2.981,2.981,0,0,1,1.7755.6108l.7083-1.1924a3.5523,3.5523,0,0,0-2.44-.809,3.4271,3.4271,0,0,0-3.6193,3.5625m19.0178-3.5625a2.0024,2.0024,0,0,0-1.7886.9942v-.8236h-1.462V67.76h1.4767V63.9574c0-1.1225.4824-1.7463,1.4474-1.7463a2.39,2.39,0,0,1,.9227.1706l.4548-1.3906a3.142,3.142,0,0,0-1.051-.1852m-39.5416.71a5.0742,5.0742,0,0,0-2.7665-.71c-1.7187,0-2.8249.8236-2.8249,2.172,0,1.1062.8236,1.7885,2.3408,2.0013l.697.0991c.8089.1137,1.1907.3265,1.1907.71,0,.5247-.5393.8236-1.5465.8236a3.6126,3.6126,0,0,1-2.2564-.71L34.263,67.05a4.8936,4.8936,0,0,0,2.9371.88c1.9591,0,3.0946-.9227,3.0946-2.2142,0-1.1923-.8935-1.8161-2.37-2.0289l-.6953-.1008c-.6384-.0844-1.15-.2111-1.15-.666,0-.4971.4824-.7944,1.2914-.7944a4.3772,4.3772,0,0,1,2.1151.5816Zm19.0325-.71A1.9976,1.9976,0,0,0,57.37,61.8v-.8236H55.9076V67.76h1.4751V63.9574c0-1.1225.4824-1.7463,1.4474-1.7463a2.39,2.39,0,0,1,.9227.1706l.4548-1.3906a3.142,3.142,0,0,0-1.051-.1852m-12.5881.1706H44.1561V58.9183H42.6648v2.0582H41.2889v1.3483h1.3759V65.42c0,1.5741.6108,2.5114,2.3555,2.5114a3.4625,3.4625,0,0,0,1.8455-.5247L46.44,66.1424a2.7308,2.7308,0,0,1-1.306.3833c-.7376,0-.978-.4548-.978-1.1355V62.3248h2.4124ZM24.5129,67.76V63.5026a2.526,2.526,0,0,0-2.6691-2.6967,2.6264,2.6264,0,0,0-2.3847,1.207,2.49,2.49,0,0,0-2.2418-1.207,2.2433,2.2433,0,0,0-1.9867,1.0072v-.8366H13.7539V67.76h1.49V64a1.5877,1.5877,0,0,1,1.6618-1.8032c.98,0,1.475.6384,1.475,1.7885V67.76h1.4913V64a1.6,1.6,0,0,1,1.66-1.8032c1.0072,0,1.49.6384,1.49,1.7885V67.76Z"/><path class="cls-3" d="M62.0514,49.4622H39.6959V9.2855H62.0514Z"/><path class="cls-4" d="M41.1281,29.3706A25.5086,25.5086,0,0,1,50.8863,9.2822a25.5515,25.5515,0,1,0,0,40.1768,25.5088,25.5088,0,0,1-9.7582-20.0884"/><path class="cls-5" d="M92.2019,29.3706A25.55,25.55,0,0,1,50.862,49.459a25.5535,25.5535,0,0,0,0-40.1768,25.55,25.55,0,0,1,41.34,20.0884"/></g></g></svg>