<svg xmlns="http://www.w3.org/2000/svg" viewBox="0 0 101.75 71.75"><defs><style>.cls-1{fill:#fff;}.cls-2{fill:#006fcf;}</style></defs><title>Risorsa 5</title><g id="Livello_2" data-name="Livello 2"><g id="Livello_1-2" data-name="Livello 1"><rect class="cls-1" width="101.75" height="71.75"/><rect class="cls-1" x="22.4893" y="7.5602" width="56.3933" height="56.6296"/><path class="cls-2" d="M79.2607,44.2421c0,1.4182-.898,2.0793-2.5054,2.0793h-3.072V44.9032h3.072a.98.98,0,0,0,.6151-.1412.6025.6025,0,0,0,.1886-.4257.72.72,0,0,0-.1886-.4725.8207.8207,0,0,0-.5674-.1417c-1.4651-.0478-3.3088.0468-3.3088-2.0329a1.9933,1.9933,0,0,1,2.2688-1.9857H78.93v1.4183H75.999a1.12,1.12,0,0,0-.6143.0943.677.677,0,0,0-.2362.52.5155.5155,0,0,0,.3308.4732,2.4218,2.4218,0,0,0,.6149.0943h.85a2.683,2.683,0,0,1,1.844.52,2.0443,2.0443,0,0,1,.472,1.4183Zm-6.6651-1.4183a2.6821,2.6821,0,0,0-1.8437-.52h-.8505a2.4284,2.4284,0,0,1-.6146-.0943.5142.5142,0,0,1-.3306-.4731.5545.5545,0,0,1,.236-.52,1.12,1.12,0,0,1,.6146-.0943h2.9308V39.7035H69.5705c-1.702,0-2.2694,1.04-2.2694,1.9857,0,2.0794,1.844,1.9851,3.3094,2.0329a.8185.8185,0,0,1,.5668.1417.7216.7216,0,0,1,.1895.4725.6011.6011,0,0,1-.1895.4258,1.0743,1.0743,0,0,1-.6142.1411H67.49v1.4182h3.0729c1.6065,0,2.5051-.6614,2.5051-2.0793a2.04,2.04,0,0,0-.4726-1.4183Zm-6.0508,2.1274H62.8112V43.6275h3.64V42.3044h-3.64V41.075h3.7336V39.7044H61.2512v6.6173h5.2936Zm-6.9956-4.9159a3.9675,3.9675,0,0,0-1.9383-.3312H53.9716v6.6173h1.6068v-2.41H57.28c.5668,0,.8979.0474,1.1345.2837a2.11,2.11,0,0,1,.2837,1.3237v.8031H60.258V45.0452a2.1811,2.1811,0,0,0-.236-1.2289,1.8431,1.8431,0,0,0-.8031-.5674A1.8218,1.8218,0,0,0,60.3535,41.5a1.4848,1.4848,0,0,0-.8043-1.4645Zm-8.9813-.3312H45.51l-2.0325,2.1746-1.9383-2.1746H35.1578v6.6173h6.287l2.0329-2.1745,1.938,2.1745h3.0728V44.1h1.9851c1.3708,0,2.742-.3783,2.742-2.2217,0-1.7963-1.4186-2.1746-2.6477-2.1746Zm7.7047,2.742a1.9683,1.9683,0,0,1-.7563.094l-1.9379.0477V41.0747h1.9379a1.2831,1.2831,0,0,1,.7563.1417.6016.6016,0,0,1,.3309.5674A.8266.8266,0,0,1,58.2726,42.4461Zm-7.7047.3305h-2.08v-1.702h2.08c.5674,0,.9454.2369.9454.8041a.8569.8569,0,0,1-.9454.8979Zm-6.098.236,2.458-2.5994v5.3414Zm-3.8288,1.9386H36.7174V43.6275h3.498V42.3044h-3.498V41.075h3.9709l1.7491,1.9379ZM74.8644,34.93H72.5956l-2.978-4.9634V34.93H66.4037l-.6152-1.4654H62.48L61.8654,34.93H60.0217a3.4187,3.4187,0,0,1-2.3156-.7566,3.459,3.459,0,0,1-.804-2.5051,3.4153,3.4153,0,0,1,.8505-2.6,3.2078,3.2078,0,0,1,2.41-.7562h1.5126V29.73H60.1631a1.6716,1.6716,0,0,0-1.2288.3783,2.1424,2.1424,0,0,0-.4254,1.5126,2.3665,2.3665,0,0,0,.4254,1.56,1.5783,1.5783,0,0,0,1.0871.3305h.7092l2.2688-5.1993h2.3637L68.01,34.5516v-6.24h2.4583l2.7888,4.5851V28.3119h1.6068V34.93ZM56.0987,28.312H54.4918V34.93h1.6069Zm-3.3566.2837a3.8039,3.8039,0,0,0-1.8905-.2837h-3.64V34.93h1.56V32.5188H50.473a1.62,1.62,0,0,1,1.182.2837,2.0066,2.0066,0,0,1,.236,1.2762V34.93h1.6068V33.6059a1.7639,1.7639,0,0,0-.2831-1.1817,1.978,1.978,0,0,0-.7563-.5671,1.8775,1.8775,0,0,0,1.1346-1.7492,1.6367,1.6367,0,0,0-.8509-1.5122ZM46.077,33.559H42.39V32.2353h3.64V30.8648H42.39v-1.182H46.077v-1.37H40.7828V34.93H46.077Zm-6.4759-5.247h-2.6l-1.938,4.4905-2.08-4.4905H30.4307v6.2393L27.7364,28.312H25.373L22.5368,34.93h1.7017l.6142-1.4654h3.3088l.6146,1.4654h3.2146V29.73L34.3066,34.93h1.3706L37.9937,29.73V34.93h1.6071V28.312ZM65.222,32.0462l-1.0877-2.6-1.0869,2.6Zm-13.7087-1.04a1.4431,1.4431,0,0,1-.8034.142H48.7713V29.6831H50.71a2.0859,2.0859,0,0,1,.8034.0946.7035.7035,0,0,1,.2837.6145.6507.6507,0,0,1-.2834.6143ZM25.42,32.0462l1.0874-2.6,1.0871,2.6ZM78.8827,7.56H22.4893V31.3845l1.938-4.3959H28.54l.5675,1.0871V26.9886h4.8216l1.0871,2.3633,1.04-2.3633h15.363a2.7939,2.7939,0,0,1,1.7963.52v-.52h4.2068v.52a5.63,5.63,0,0,1,2.6471-.52h6.0976l.5674,1.0871V26.9886h4.4908l.662,1.0871V26.9886h4.3957v9.2647H71.8393l-.85-1.418v1.418H65.458l-.6143-1.5126H63.4722l-.6142,1.5126H59.9746a5.6618,5.6618,0,0,1-2.5522-.5671v.5671H50.5679V34.1262c0-.2837-.0472-.3312-.2363-.3312h-.2363v2.458H36.86V35.0713l-.4726,1.1817H33.5981l-.4726-1.1346V36.253H27.7836L27.2164,34.74H25.8456l-.6143,1.5126h-2.742V64.19H78.8827V47.22a5.7874,5.7874,0,0,1-2.3163.4254H72.4539v-.5674a3.6465,3.6465,0,0,1-2.1271.5674H57.3746V45.5183c0-.2837-.0468-.2837-.2837-.2837h-.2363v2.41H52.6V45.14a5.2021,5.2021,0,0,1-2.2217.3306h-.4728v2.1745H44.7065l-1.2288-1.4182-1.3709,1.4182H33.74V38.3807h8.5087l1.2292,1.4174,1.3237-1.4174h5.72a3.5673,3.5673,0,0,1,2.2214.5665v-.5665h5.1051a4.0461,4.0461,0,0,1,2.1745.5665v-.5665h7.7051v.5671a3.1426,3.1426,0,0,1,1.938-.5668h4.3016v.5668a3.4166,3.4166,0,0,1,1.9857-.5668h2.9306Z"/></g></g></svg>