<svg xmlns="http://www.w3.org/2000/svg" viewBox="0 0 101.75 71.75"><defs><style>.cls-1{fill:#fff;}.cls-2{fill:#00579f;}.cls-3{fill:#faa61a;}</style></defs><title>Risorsa 1</title><g id="Livello_2" data-name="Livello 2"><g id="Livello_1-2" data-name="Livello 1"><rect class="cls-1" width="101.75" height="71.75"/><polygon id="polygon9" class="cls-2" points="45.086 49.52 38.052 49.52 42.452 22.317 49.485 22.317 45.086 49.52"/><path id="path11" class="cls-2" d="M70.5847,22.9823a17.3325,17.3325,0,0,0-6.3089-1.1582c-6.9462,0-11.8376,3.7041-11.8676,9-.0577,3.9072,3.5021,6.0773,6.1646,7.38,2.7213,1.3312,3.6464,2.2,3.6464,3.3867-.0277,1.8225-2.199,2.6625-4.2241,2.6625a14,14,0,0,1-6.6-1.447l-.9262-.4346-.9843,6.1065A21.4066,21.4066,0,0,0,57.33,49.9259c7.38,0,12.1854-3.6468,12.2423-9.29.0281-3.0967-1.8516-5.47-5.9042-7.4086-2.46-1.2447-3.9668-2.0839-3.9668-3.3575.0289-1.1577,1.2743-2.3436,4.0514-2.3436a11.9513,11.9513,0,0,1,5.24,1.0416l.6362.2889.9566-5.8742Z"/><path id="path13" class="cls-2" d="M79.9334,39.8833c.5792-1.5628,2.8082-7.6112,2.8082-7.6112-.0292.0581.5781-1.5917.9255-2.6044l.4915,2.344s1.332,6.5115,1.6213,7.8716Zm8.6824-17.5661H83.1751a3.4709,3.4709,0,0,0-3.6764,2.2571L69.0508,49.52h7.38s1.2151-3.3575,1.4763-4.0807h9.0309c.202.9551.8393,4.0807.8393,4.0807H94.29L88.6158,22.3172Z"/><path id="path15" class="cls-2" d="M32.1773,22.3172l-6.8885,18.55-.7528-3.7621c-1.2735-4.3411-5.2676-9.0575-9.7248-11.4027l6.31,23.7892H28.559L39.6151,22.3172Z"/><path id="path17" class="cls-3" d="M18.8922,22.3172H7.5753l-.1157.55c8.8278,2.2574,14.6743,7.6989,17.0764,14.2393l-2.46-12.5023c-.4051-1.7374-1.65-2.2294-3.1837-2.2867Z"/></g></g></svg>